<?xml version="1.0" encoding="UTF-8"?>
<svg xmlns="http://www.w3.org/2000/svg" xmlns:xlink="http://www.w3.org/1999/xlink" width="473.21pt" height="113.82pt" viewBox="0 0 473.21 113.82" version="1.1">
<defs>
<clipPath id="clip1">
  <path d="M 0 0 L 72 0 L 72 113.820313 L 0 113.820313 Z M 0 0 "/>
</clipPath>
<clipPath id="clip2">
  <path d="M 463 24 L 473.210938 24 L 473.210938 34 L 463 34 Z M 463 24 "/>
</clipPath>
</defs>
<g id="surface1">
<path style=" stroke:none;fill-rule:nonzero;fill:rgb(47.799683%,76.098633%,34.098816%);fill-opacity:1;" d="M 68.847656 80.367188 C 73.941406 62.546875 73.214844 51.820313 64.847656 37.09375 C 53.941406 18.183594 23.394531 12.367188 8.484375 4.546875 C 3.214844 1.636719 1.394531 -0.542969 0.121094 0.183594 C 4.851563 6.183594 9.03125 9.636719 14.667969 14.183594 C 21.394531 18.910156 53.757813 42.183594 68.847656 80.367188 "/>
<g clip-path="url(#clip1)" clip-rule="nonzero">
<path style=" stroke:none;fill-rule:nonzero;fill:rgb(47.799683%,76.098633%,34.098816%);fill-opacity:1;" d="M 69.941406 113.820313 C 73.03125 104.367188 69.394531 94.183594 67.394531 89.09375 C 62.667969 76.367188 47.941406 43.457031 14.484375 13.820313 C 14.484375 13.820313 14.667969 14.003906 14.847656 14.003906 C 9.214844 9.457031 5.03125 6.003906 0.304688 0.00390625 C 0.304688 0.00390625 0.121094 0.00390625 0.121094 0.183594 C -0.785156 2.546875 3.578125 5.457031 6.304688 16.367188 C 11.757813 37.09375 5.03125 58.367188 47.578125 77.820313 C 65.394531 86.003906 67.941406 98.183594 65.214844 107.636719 C 66.304688 108.730469 67.394531 109.820313 68.304688 111.09375 C 68.847656 111.820313 69.394531 112.910156 69.941406 113.820313 "/>
</g>
<path style=" stroke:none;fill-rule:nonzero;fill:rgb(25.898743%,28.599548%,33.299255%);fill-opacity:1;" d="M 343.214844 28.730469 L 356.121094 28.730469 L 356.121094 19.09375 L 343.214844 19.09375 Z M 343.394531 90.546875 L 356.121094 90.546875 L 356.121094 42.910156 L 343.394531 42.910156 L 343.394531 90.546875 "/>
<path style=" stroke:none;fill-rule:nonzero;fill:rgb(25.898743%,28.599548%,33.299255%);fill-opacity:1;" d="M 392.667969 57.636719 C 392.667969 66.367188 398.304688 70.183594 407.578125 70.910156 L 415.578125 71.636719 C 419.578125 72.003906 420.851563 73.636719 420.851563 76.003906 C 420.851563 79.636719 416.304688 80.910156 411.941406 80.910156 C 408.121094 80.910156 400.484375 80.367188 396.304688 76.367188 L 391.941406 86.546875 C 398.304688 90.910156 403.757813 90.910156 411.757813 90.910156 C 423.757813 90.910156 433.214844 85.820313 433.214844 75.273438 C 433.214844 67.273438 428.121094 62.183594 418.121094 61.273438 L 410.121094 60.546875 C 405.578125 60.183594 404.851563 58.183594 404.851563 56.367188 C 404.851563 54.003906 407.03125 51.820313 412.121094 51.820313 C 416.484375 51.820313 422.121094 52.546875 425.03125 55.09375 L 429.578125 46.183594 C 423.578125 42.910156 420.121094 42.183594 412.121094 42.183594 C 401.941406 42.367188 392.667969 47.820313 392.667969 57.636719 "/>
<path style=" stroke:none;fill-rule:nonzero;fill:rgb(25.898743%,28.599548%,33.299255%);fill-opacity:1;" d="M 440.121094 26.546875 L 440.121094 44.367188 L 434.851563 44.367188 L 434.851563 53.457031 L 440.121094 53.457031 L 440.121094 77.09375 C 440.121094 83.820313 444.484375 90.730469 454.851563 90.730469 L 461.757813 90.730469 L 461.757813 80.546875 L 457.214844 80.546875 C 454.121094 80.546875 452.851563 78.910156 452.851563 76.183594 L 452.851563 53.457031 L 461.757813 53.457031 L 461.757813 44.367188 L 452.667969 44.367188 L 452.667969 26.546875 L 440.121094 26.546875 "/>
<path style=" stroke:none;fill-rule:nonzero;fill:rgb(25.898743%,28.599548%,33.299255%);fill-opacity:1;" d="M 390.484375 42.367188 C 385.03125 42.367188 380.121094 44.730469 377.757813 47.457031 L 377.757813 42.910156 L 365.394531 42.910156 L 365.394531 90.546875 L 378.121094 90.546875 L 378.121094 61.820313 C 378.121094 55.820313 382.304688 52.910156 386.304688 52.910156 C 387.757813 52.910156 389.03125 53.09375 390.304688 53.273438 L 393.214844 42.367188 C 392.851563 42.367188 392.304688 42.367188 391.757813 42.367188 C 391.394531 42.367188 391.03125 42.367188 390.484375 42.367188 "/>
<path style=" stroke:none;fill-rule:nonzero;fill:rgb(25.898743%,28.599548%,33.299255%);fill-opacity:1;" d="M 330.121094 19.09375 C 319.757813 19.09375 315.214844 26.003906 315.214844 32.730469 L 315.214844 44.367188 L 310.121094 44.367188 C 310.121094 47.820313 310.121094 50.910156 310.121094 52.910156 L 310.121094 53.457031 L 315.214844 53.457031 L 315.214844 90.730469 L 327.941406 90.730469 L 327.941406 53.457031 L 337.214844 53.457031 L 337.214844 44.367188 L 327.941406 44.367188 L 327.941406 33.457031 C 327.941406 30.730469 329.394531 29.09375 332.304688 29.09375 L 337.214844 29.09375 L 337.214844 19.09375 L 330.121094 19.09375 "/>
<path style=" stroke:none;fill-rule:nonzero;fill:rgb(25.898743%,28.599548%,33.299255%);fill-opacity:1;" d="M 92.121094 90.546875 L 92.121094 60.183594 C 92.121094 51.820313 96.667969 47.273438 105.03125 47.273438 C 113.394531 47.273438 117.578125 51.636719 117.578125 60.183594 L 117.578125 90.546875 L 123.757813 90.546875 L 123.757813 59.457031 C 123.757813 54.003906 122.121094 49.636719 118.851563 46.730469 C 115.757813 43.636719 111.214844 42.003906 105.578125 42.003906 C 100.121094 42.003906 95.578125 43.636719 92.121094 47.09375 L 92.121094 18.367188 L 85.941406 18.367188 L 85.941406 90.546875 L 92.121094 90.546875 "/>
<path style=" stroke:none;fill-rule:nonzero;fill:rgb(25.898743%,28.599548%,33.299255%);fill-opacity:1;" d="M 205.214844 82.183594 C 201.941406 85.09375 198.121094 85.636719 193.757813 85.636719 C 185.03125 85.636719 181.941406 82.367188 181.757813 76.730469 C 181.757813 70.910156 185.394531 68.183594 193.394531 68.183594 L 207.757813 68.183594 L 207.757813 73.273438 C 207.757813 77.273438 206.851563 80.730469 205.214844 82.183594 M 207.757813 90.546875 L 213.941406 90.546875 L 213.941406 57.457031 C 213.941406 52.546875 212.484375 48.546875 209.214844 46.003906 C 205.941406 43.273438 201.214844 42.003906 194.851563 42.003906 C 187.03125 42.003906 181.757813 43.636719 177.578125 49.273438 L 177.214844 49.636719 L 181.757813 53.457031 L 182.121094 52.910156 C 185.214844 48.910156 188.121094 47.457031 194.851563 47.273438 C 204.484375 47.457031 207.578125 50.910156 207.757813 57.820313 L 207.757813 62.730469 L 192.851563 62.730469 C 187.578125 62.730469 183.214844 64.003906 180.304688 66.367188 C 177.394531 68.730469 175.757813 72.183594 175.757813 76.546875 C 175.757813 80.003906 177.03125 84.183594 179.394531 86.367188 C 182.667969 89.457031 186.667969 90.730469 193.757813 90.730469 C 199.941406 90.730469 203.941406 89.636719 207.757813 86.367188 L 207.757813 90.546875 "/>
<path style=" stroke:none;fill-rule:nonzero;fill:rgb(25.898743%,28.599548%,33.299255%);fill-opacity:1;" d="M 273.03125 90.546875 L 273.03125 60.003906 C 273.03125 51.636719 277.574219 47.09375 285.941406 47.09375 C 294.304688 47.09375 298.484375 51.457031 298.484375 60.003906 L 298.484375 90.546875 L 304.667969 90.546875 L 304.667969 59.273438 C 304.667969 54.003906 303.03125 49.457031 299.757813 46.546875 C 296.667969 43.457031 292.121094 41.820313 286.484375 41.820313 C 281.03125 41.820313 276.484375 43.457031 273.03125 46.910156 L 273.03125 18.367188 L 266.851563 18.367188 L 266.851563 90.546875 L 273.03125 90.546875 "/>
<path style=" stroke:none;fill-rule:nonzero;fill:rgb(25.898743%,28.599548%,33.299255%);fill-opacity:1;" d="M 258.851563 85.457031 L 256.484375 85.457031 C 251.757813 85.457031 249.757813 83.09375 249.757813 78.546875 L 249.757813 48.546875 L 260.484375 48.546875 L 260.484375 43.820313 L 249.757813 43.820313 L 249.757813 22.910156 L 243.574219 22.910156 L 243.574219 43.820313 L 237.03125 43.820313 L 237.03125 48.546875 L 243.574219 48.546875 L 243.574219 78.367188 C 243.574219 81.820313 244.667969 84.910156 246.667969 87.273438 C 248.667969 89.457031 251.757813 90.730469 255.574219 90.730469 L 258.851563 90.730469 L 258.851563 85.457031 "/>
<path style=" stroke:none;fill-rule:nonzero;fill:rgb(25.898743%,28.599548%,33.299255%);fill-opacity:1;" d="M 138.484375 54.910156 C 140.484375 50.183594 145.03125 47.457031 150.304688 47.457031 C 155.757813 47.457031 160.121094 50.183594 162.121094 54.910156 C 163.394531 57.457031 163.394531 58.910156 163.757813 62.910156 L 136.851563 62.910156 C 137.214844 58.910156 137.394531 57.820313 138.484375 54.910156 M 164.304688 80.183594 C 164.304688 80.183594 164.121094 80.183594 164.304688 80.183594 L 164.121094 80.367188 L 164.304688 80.183594 C 160.304688 83.820313 157.214844 85.273438 151.941406 85.273438 C 142.121094 85.273438 137.214844 79.457031 137.03125 68.003906 L 170.121094 68.003906 L 170.121094 65.273438 C 170.121094 58.003906 168.304688 52.183594 164.851563 48.183594 C 161.394531 44.183594 156.484375 42.003906 150.484375 42.003906 C 144.304688 42.003906 139.394531 44.183594 136.121094 48.546875 C 132.667969 52.730469 130.851563 58.910156 130.851563 66.546875 C 130.851563 74.367188 132.667969 80.546875 136.121094 84.730469 C 139.578125 88.910156 144.851563 91.09375 151.578125 91.09375 C 158.851563 91.09375 163.394531 88.910156 167.757813 84.910156 L 164.304688 80.183594 "/>
<path style=" stroke:none;fill-rule:nonzero;fill:rgb(25.898743%,28.599548%,33.299255%);fill-opacity:1;" d="M 224.667969 18.367188 L 230.851563 18.367188 L 230.851563 90.546875 L 224.667969 90.546875 L 224.667969 18.367188 "/>
<g clip-path="url(#clip2)" clip-rule="nonzero">
<path style=" stroke:none;fill-rule:nonzero;fill:rgb(25.898743%,28.599548%,33.299255%);fill-opacity:1;" d="M 467.03125 28.730469 L 468.121094 28.730469 C 468.667969 28.730469 468.851563 28.730469 469.03125 28.546875 C 469.214844 28.367188 469.214844 28.183594 469.214844 28.003906 C 469.214844 27.820313 469.214844 27.636719 469.03125 27.636719 C 469.03125 27.457031 468.851563 27.457031 468.667969 27.457031 C 468.484375 27.457031 468.304688 27.457031 467.757813 27.457031 L 466.851563 27.457031 L 466.851563 28.730469 Z M 466.121094 31.636719 L 466.121094 26.546875 L 467.941406 26.546875 C 468.484375 26.546875 469.03125 26.546875 469.214844 26.730469 C 469.394531 26.910156 469.757813 26.910156 469.941406 27.273438 C 470.121094 27.457031 470.121094 27.820313 470.121094 28.003906 C 470.121094 28.367188 469.941406 28.730469 469.757813 28.910156 C 469.578125 29.273438 469.214844 29.273438 468.667969 29.457031 C 468.851563 29.457031 469.03125 29.636719 469.03125 29.820313 C 469.214844 30.003906 469.394531 30.367188 469.757813 30.910156 L 470.304688 32.003906 L 469.214844 32.003906 L 468.851563 31.273438 C 468.484375 30.546875 468.121094 30.183594 467.941406 30.003906 C 467.757813 29.820313 467.578125 29.820313 467.214844 29.820313 L 466.667969 29.820313 L 466.667969 32.003906 L 466.121094 32.003906 Z M 468.304688 25.09375 C 467.578125 25.09375 467.03125 25.273438 466.304688 25.636719 C 465.757813 26.003906 465.214844 26.546875 464.851563 27.09375 C 464.484375 27.820313 464.304688 28.367188 464.304688 29.09375 C 464.304688 29.820313 464.484375 30.367188 464.851563 31.09375 C 465.214844 31.636719 465.757813 32.183594 466.304688 32.546875 C 466.851563 32.910156 467.578125 33.09375 468.304688 33.09375 C 469.03125 33.09375 469.578125 32.910156 470.304688 32.546875 C 471.03125 32.183594 471.394531 31.636719 471.757813 31.09375 C 472.121094 30.546875 472.304688 29.820313 472.304688 29.09375 C 472.304688 28.367188 472.121094 27.820313 471.757813 27.09375 C 471.394531 26.367188 470.851563 26.003906 470.304688 25.636719 C 469.578125 25.273438 468.851563 25.09375 468.304688 25.09375 M 468.304688 24.183594 C 469.03125 24.183594 469.941406 24.367188 470.667969 24.730469 C 471.394531 25.09375 471.941406 25.636719 472.484375 26.546875 C 472.851563 27.273438 473.214844 28.183594 473.214844 28.910156 C 473.214844 29.820313 473.03125 30.546875 472.667969 31.273438 C 472.304688 32.003906 471.578125 32.546875 470.851563 33.09375 C 470.121094 33.457031 469.214844 33.636719 468.484375 33.636719 C 467.578125 33.636719 466.851563 33.457031 466.121094 33.09375 C 465.394531 32.730469 464.851563 32.003906 464.304688 31.273438 C 463.941406 30.546875 463.757813 29.636719 463.757813 28.910156 C 463.757813 28.003906 463.941406 27.273438 464.484375 26.546875 C 464.851563 25.820313 465.578125 25.273438 466.304688 24.730469 C 466.667969 24.546875 467.394531 24.183594 468.304688 24.183594 "/>
</g>
</g>
</svg>
