<svg version="1.2" xmlns="http://www.w3.org/2000/svg" viewBox="0 0 1226 1514" width="1226" height="1514">
	<title>brandLogo-svg</title>
	<style>
		.s0 { fill: #004084 } 
		.s1 { fill: #45c0be } 
		.s2 { fill: #ffffff } 
	</style>
	<path id="Layer" class="s0" d="m1225.2 0.7v1125.4c-0.1 26.2-6.2 51.9-17.9 75.1-11.7 23.2-28.6 43.2-49.3 58.3l-304.1 222.9c-27.7 20.3-60.8 31.2-94.8 31.2h-291.9c-34 0-67.1-10.9-94.8-31.2l-304.6-222.9c-20.7-15.1-37.6-35.1-49.3-58.3-11.7-23.2-17.8-48.9-17.9-75.1v-1125.4z"/>
	<path id="Layer" class="s1" d="m771 715.5h-315.8c-27.6 0-54.8 5.6-80.3 16.5-25.5 10.8-48.6 26.7-68.1 46.8l-183.3 188.9h244.8v252.2l244.7-252.2 244.9 252.2v-252.2h244.9l-183.4-188.9c-19.5-20.1-42.6-36-68.1-46.9-25.5-10.8-52.8-16.4-80.3-16.4zm-315.8-17h315.8c27.5 0 54.8-5.6 80.3-16.4 25.5-10.9 48.6-26.8 68.1-46.9l183.4-188.3h-244.9v-252.1l-244.7 252.1-244.9-252.1v252.1h-244.8l183.3 188.9c39.4 40.3 92.8 62.9 148.4 62.7z"/>
	<path id="Layer" class="s2" d="m806 645h-126.8v-130.4h-120.8v130.4h-126.7v124.6h126.7v130.4h120.8v-130.4h126.8z"/>
</svg>